<?xml version="1.0" encoding="UTF-8"?>
<svg version="1.1" xmlns="http://www.w3.org/2000/svg" width="512" height="512">
<path d="M0 0 C0.85851562 0.63808594 1.71703125 1.27617187 2.6015625 1.93359375 C22.04050774 17.1005584 36.96372868 35.50016018 47 58 C47.54269531 59.18722656 48.08539063 60.37445313 48.64453125 61.59765625 C55.55268882 77.67005323 59.1762712 94.97670896 59.1875 112.4375 C59.19974609 113.43587891 59.21199219 114.43425781 59.22460938 115.46289062 C59.2361961 121.33736053 58.69738705 126.37111567 57 132 C53.99884257 130.90867003 51.48340553 129.68209571 48.75 128 C41.50789543 123.78983943 33.03442655 122.93170364 24.92578125 124.65234375 C9.94546245 128.70625116 3.16203341 137.67673677 -4.359375 150.671875 C-5.49701355 152.69375389 -6.62696557 154.71997306 -7.75 156.75 C-8.35489258 157.84054687 -8.95978516 158.93109375 -9.58300781 160.0546875 C-30.03439425 197.18811585 -55.93863571 246.18911771 -43.390625 289.9296875 C-40.02711105 300.34654041 -34.88974935 309.75112226 -27.6640625 317.984375 C-26.06919856 319.91618202 -25.01646452 321.72065531 -24 324 C-27.74119343 326.49412896 -31.66476013 326.63801467 -36 326 C-42.44009372 323.15033614 -48.10617879 319.40909355 -53.90625 315.44140625 C-54.83038696 314.81523911 -55.75452393 314.18907196 -56.70666504 313.54393005 C-59.64089617 311.5546699 -62.57063484 309.55891712 -65.5 307.5625 C-68.43015851 305.57085133 -71.36125701 303.58060341 -74.29333496 301.59178162 C-76.1111181 300.35822507 -77.92767991 299.12286614 -79.74279785 297.88539124 C-81.38712129 296.76749539 -83.03603505 295.65631172 -84.69018555 294.55300903 C-86.21600314 293.52712208 -87.72597755 292.47722225 -89.21801758 291.40280151 C-89.90726318 290.92561676 -90.59650879 290.44843201 -91.30664062 289.95678711 C-91.90174438 289.52990097 -92.49684814 289.10301483 -93.10998535 288.66319275 C-95.08118301 287.76710204 -95.08118301 287.76710204 -97.45857239 288.70307922 C-99.88653259 289.94209623 -102.10488621 291.25913111 -104.35620117 292.79394531 C-105.18443893 293.35502991 -106.0126767 293.9161145 -106.86601257 294.49420166 C-107.74940811 295.09939636 -108.63280365 295.70459106 -109.54296875 296.328125 C-110.92842644 297.26806305 -110.92842644 297.26806305 -112.34187317 298.22698975 C-115.29347996 300.23019421 -118.24078057 302.23961457 -121.1875 304.25 C-124.11683384 306.24539585 -127.0471218 308.23934492 -129.97956848 310.23016357 C-131.80138801 311.46728436 -133.62140529 312.70706509 -135.43925476 313.95001221 C-155.09422218 327.31013194 -155.09422218 327.31013194 -164 326 C-170.00446491 323.65776152 -173.82119798 319.56495428 -178.2421875 315.05078125 C-179.01055939 314.27816452 -179.77893127 313.50554779 -180.57058716 312.70951843 C-183.01254927 310.25082246 -185.44384715 307.78188004 -187.875 305.3125 C-189.53316033 303.63928608 -191.19200708 301.96675211 -192.8515625 300.29492188 C-196.90902693 296.20445836 -200.95779595 292.10554152 -205 288 C-209.58154821 289.40733441 -213.7952875 291.26232051 -218.05932617 293.42407227 C-218.73813339 293.764133 -219.41694061 294.10419373 -220.11631775 294.45455933 C-222.34373677 295.57149584 -224.56830808 296.69398736 -226.79296875 297.81640625 C-228.34641891 298.59626894 -229.90007714 299.3757173 -231.45393372 300.1547699 C-235.53315841 302.20101678 -239.61012832 304.25171278 -243.6864624 306.30371094 C-250.22081353 309.59249386 -256.75789141 312.87584007 -263.29625893 316.15662956 C-265.57893753 317.30308122 -267.8602323 318.45225175 -270.1414032 319.60169983 C-271.53717512 320.30299916 -272.93299082 321.00421139 -274.32885742 321.70532227 C-274.96319702 322.02586075 -275.59753662 322.34639923 -276.25109863 322.676651 C-281.61060577 325.36335406 -285.97429353 326.61860865 -292 326 C-297.67507225 323.99703332 -301.30675089 320.38649821 -304 315 C-304.91080452 306.55840005 -303.00312646 299.6607966 -300.109375 291.8046875 C-299.49215828 290.06396217 -299.49215828 290.06396217 -298.86247253 288.28807068 C-297.97265662 285.78588709 -297.0770395 283.28685929 -296.1701355 280.79092407 C-294.72074834 276.80179954 -293.29537067 272.80434661 -291.87329102 268.80541992 C-290.14502785 263.95042577 -288.41116151 259.09750835 -286.66959095 254.24727154 C-282.43702623 242.45868337 -278.29639254 230.6384714 -274.16275024 218.81484985 C-272.10022604 212.9191715 -270.03029479 207.02609518 -267.9609375 201.1328125 C-267.13376715 198.77637488 -266.30661869 196.41992958 -265.47949219 194.06347656 C-264.23979448 190.53185765 -263.00008523 187.00024279 -261.76037598 183.46862793 C-259.27474837 176.38763601 -256.78940892 169.30654305 -254.30429077 162.22537231 C-253.07014846 158.70929054 -251.8355128 155.19338227 -250.60083008 151.67749023 C-246.39016457 139.68388109 -242.19055192 127.68654774 -238.00897789 115.68277168 C-236.57759995 111.57484587 -235.14452472 107.46751172 -233.71153355 103.36014843 C-232.56658842 100.07771283 -231.42297121 96.79482713 -230.28250122 93.51083374 C-214.25244078 47.37190998 -193.85424641 9.18110738 -148.11791992 -13.23364258 C-101.00835938 -35.43326301 -42.0858386 -31.78555078 0 0 Z M-50.3125 71.8125 C-52.9219334 76.74142975 -53.51571449 80.16276714 -52 85.5625 C-48.88841004 90.91054524 -45.52852601 94.2184556 -39.5625 96.0625 C-34.50820554 95.97382817 -30.20975104 95.05152195 -26.41796875 91.53125 C-22.34555138 86.74293217 -21.64329957 83.6583444 -21.72265625 77.5390625 C-22.27370283 72.49426985 -25.00511244 69.90013636 -28.625 66.625 C-37.16369769 62.51377518 -44.37186913 64.5874084 -50.3125 71.8125 Z " fill="#000000" transform="translate(333,160)"/>
<path d="M0 0 C3.17090491 3.20086621 6.13060184 6.52769328 9 10 C9.74507813 10.88429688 10.49015625 11.76859375 11.2578125 12.6796875 C13 15 13 15 13 17 C14.33273783 17.66785635 15.66620386 18.33425974 17 19 C17.639375 19.32419922 18.27875 19.64839844 18.9375 19.98242188 C25.1315782 22.94455207 31.26996836 24.28565137 38 25.5 C40.22301694 25.92520192 42.44567355 26.35229194 44.66796875 26.78125 C45.74739746 26.9875 46.82682617 27.19375 47.93896484 27.40625 C66.97240918 31.09817348 85.30486745 36.21410077 98 52 C109.44077956 69.2570418 114.38238387 86.91061652 111.50390625 107.55859375 C110.82333889 110.45388877 109.99703135 113.19862447 109 116 C108.67128906 116.95648438 108.34257812 117.91296875 108.00390625 118.8984375 C98.69684393 143.43816584 77.66891727 164.12324322 54 175 C53.34 175 52.68 175 52 175 C51.53851563 174.01902344 51.07703125 173.03804687 50.6015625 172.02734375 C43.98300732 158.22834564 35.99563024 145.62454776 26 134 C25.18015625 133.04609375 24.3603125 132.0921875 23.515625 131.109375 C-2.84105607 101.10293497 -41.39351638 82.06853894 -81 78 C-131.35973349 75.82320885 -174.10364556 89.21954101 -212 123 C-212.77730469 123.69222656 -213.55460937 124.38445312 -214.35546875 125.09765625 C-226.00882769 136.11421962 -235.40674754 149.93698651 -243 164 C-243.5671875 165.04929688 -244.134375 166.09859375 -244.71875 167.1796875 C-251.52178852 180.81785434 -256.04194403 195.61342139 -261 210 C-282.7635367 191.87225414 -303.3473339 164.86784496 -307 136 C-308.41082555 117.93680731 -303.61735424 99.57285642 -291.75 85.625 C-275.50612726 69.00083593 -253.98305747 63.82612425 -232.25268555 57.85620117 C-231.44121063 57.63056992 -230.62973572 57.40493866 -229.79367065 57.17247009 C-228.26934794 56.74962775 -226.74311086 56.33359684 -225.21463013 55.92604065 C-213.59974899 52.69786389 -207.09124972 47.36141596 -201 37 C-199.89017665 34.91796074 -198.82508287 32.81813109 -197.76831055 30.70874023 C-189.51681723 14.32317942 -178.84661173 4.88477064 -161.2265625 -1.08984375 C-141.5019289 -6.65381425 -123.38822511 -0.80916805 -105.24389648 6.91381836 C-97.86745948 9.97237241 -91.11741695 12.28346261 -83.265625 9.8359375 C-79.9116118 7.95030807 -76.84824171 5.90586638 -73.75 3.625 C-53.3226722 -10.94574752 -20.44929763 -17.97262329 0 0 Z " fill="#000000" transform="translate(346,36)"/>
<path d="M0 0 C25.21924605 24.07291669 41.89567787 70.12858055 48.75 103.625 C48.93949219 104.53894531 49.12898438 105.45289063 49.32421875 106.39453125 C51.60847572 123.72554514 50.44316347 141.20111061 39.75 155.625 C28.57611108 169.60290255 15.61217689 177.96730586 -2.25 180.625 C-18.99318389 181.99677601 -35.0860312 177.72622554 -48.09350586 166.86547852 C-60.21055411 156.06193143 -67.34748533 141.43774928 -68.48828125 125.2421875 C-69.28659791 84.99022136 -47.45777688 45.02444419 -27.3125 11.4375 C-26.87615234 10.70096191 -26.43980469 9.96442383 -25.99023438 9.20556641 C-20.07055626 -0.41961129 -10.96528316 -4.63915826 0 0 Z " fill="#000000" transform="translate(374.25,305.375)"/>
<path d="M0 0 C20.99823997 0.73678035 41.45039798 15.55730375 55.52734375 30.18359375 C67.13669298 43.40688095 77.63053587 58.04470781 77.27734375 76.19921875 C76.9085538 81.25319935 75.67807886 84.74854982 73 89 C72.5875 89.69609375 72.175 90.3921875 71.75 91.109375 C67.14681167 98.06646645 60.7038225 102.30622299 52.57373047 104.06445312 C46.65056098 105.20547602 40.88225867 105.25367145 34.8671875 105.1953125 C33.74933868 105.1924826 32.63148987 105.18965271 31.47976685 105.18673706 C27.94473099 105.17563217 24.40995797 105.15054578 20.875 105.125 C18.46354535 105.11495767 16.05208669 105.10583402 13.640625 105.09765625 C7.76032852 105.07572467 1.88018305 105.04234492 -4 105 C-3.43673695 98.00565529 -2.36877543 91.2474526 -0.93359375 84.3828125 C-0.52630851 82.37377577 -0.11941967 80.36465864 0.28710938 78.35546875 C0.92318854 75.23904851 1.56281771 72.12347051 2.2097168 69.00927734 C5.70116699 53.14872646 5.70116699 53.14872646 6 37 C5.91741943 36.0296582 5.83483887 35.05931641 5.74975586 34.05957031 C5.45078385 31.05090641 5.08406913 28.05977384 4.6875 25.0625 C4.55432373 24.02287109 4.42114746 22.98324219 4.28393555 21.91210938 C3.29339551 14.47986755 1.99289882 7.23662551 0 0 Z " fill="#000000" transform="translate(406,232)"/>
</svg>
